<svg xmlns="http://www.w3.org/2000/svg" xmlns:xlink="http://www.w3.org/1999/xlink" width="500" height="54.493" viewBox="0 0 500 54.493">
  <defs>
    <clipPath id="clip-path">
      <rect id="Ret창ngulo_8342" data-name="Ret창ngulo 8342" width="500" height="54.493" fill="none"/>
    </clipPath>
  </defs>
  <g id="brasilsul" transform="translate(0 0)">
    <g id="Grupo_15666" data-name="Grupo 15666" transform="translate(0 0)" clip-path="url(#clip-path)">
      <path id="Caminho_23376" data-name="Caminho 23376" d="M526.6,17.192V27.2H507.437c-1.1,0-1.1,3.337,0,3.337H529.1a31.035,31.035,0,0,1,4.112,2.557c3.88,3.714,4.025,12.858.072,16.647-1.094,1.049-5.069,3.041-6.406,3.041H497.715V42.773H526.6V39.993H504.1a21.868,21.868,0,0,1-3.031-1.415c-6.287-4.09-5.64-17.418,1.248-20.39.411-.178,3.256-1,3.45-1Z" transform="translate(-220.493 -7.631)" fill="#4b4b4d"/>
      <path id="Caminho_23377" data-name="Caminho 23377" d="M714.536,18.192v9.454H695.369c-1.1,0-1.1,3.337,0,3.337H716.48a28.05,28.05,0,0,1,4.145,1.968c4.454,3.5,4.833,13.915.3,17.493-1.253.988-5.8,2.783-7.219,2.783H686.48l-.833-.834V43.217h28.611l.794-.892-.516-1.889h-22.5a21.642,21.642,0,0,1-3.03-1.415c-5.026-3.427-5.5-13.2-1.605-17.684.791-.912,4.218-3.145,5.191-3.145Z" transform="translate(-303.981 -8.075)" fill="#4b4b4d"/>
      <path id="Caminho_23378" data-name="Caminho 23378" d="M453.732,53.227H426.788a23.961,23.961,0,0,1-4.007-1.55c-6.5-3.707-6.877-15.247-.691-19.28a21.774,21.774,0,0,1,3.031-1.415h20c1.1,0,1.1-3.337,0-3.337H425.955V18.192h19.723c.79,0,4.261,2,5.019,2.761.831.836,3.036,4.963,3.036,5.859Zm-8.889-12.791H427.9c-1.045,0-1.045,2.781,0,2.781h16.945Z" transform="translate(-185.399 -8.075)" fill="#4b4b4d"/>
      <rect id="Ret창ngulo_8341" data-name="Ret창ngulo 8341" width="9.444" height="35.035" transform="translate(323.333 10.116)" fill="#4b4b4d"/>
      <path id="Caminho_23379" data-name="Caminho 23379" d="M779.674,18.192V43.217h12.778V18.192H801.9V46.276a13.517,13.517,0,0,1-2.576,4.65c-3.756,3.293-22.848,3.309-26.6.088a15.147,15.147,0,0,1-2.489-4.182V18.192Z" transform="translate(-341.897 -8.075)" fill="#4b4b4d"/>
      <path id="Caminho_23380" data-name="Caminho 23380" d="M851.159,18.192V43.217h22.222v10.01H849.77a12.779,12.779,0,0,1-6.14-2.752,18.366,18.366,0,0,1-2.471-5.868V18.192Z" transform="translate(-373.381 -8.075)" fill="#4b4b4d"/>
      <path id="Caminho_23381" data-name="Caminho 23381" d="M622.83,18.192V43.217h22.222v10.01H622a23.194,23.194,0,0,1-5.809-1.971c-.963-.67-2.8-3.431-2.8-4.424V18.192Z" transform="translate(-272.275 -8.075)" fill="#4b4b4d"/>
      <path id="Caminho_23382" data-name="Caminho 23382" d="M278.721,52.783V17.192H305.11a17.958,17.958,0,0,1,5.69,2.09,11.025,11.025,0,0,1,5.11,9.235c-.09,1.782-2.012,5.408-1.974,6.182.022.444,1.417,2.628,1.713,3.641C317.3,44,315.5,49.712,309.586,51.7a43.971,43.971,0,0,1-4.476,1.081Zm9.444-22.244H305.11c1.1,0,1.1-3.337,0-3.337H288.165Zm0,12.234h17.5c1.046,0,1.046-2.781,0-2.781h-17.5Z" transform="translate(-123.721 -7.631)" fill="#4b4b4d"/>
      <path id="Caminho_23383" data-name="Caminho 23383" d="M392.306,18.192v9.454H370.083V52.671h-9.444V25.143c0-2.537,3.861-6.951,6.389-6.951Z" transform="translate(-160.084 -8.075)" fill="#4b4b4d"/>
      <path id="Caminho_23384" data-name="Caminho 23384" d="M135.555,30.131,67.574,54.494a37,37,0,0,0-14.8-8.5C41.2,42.654,28.929,44.926,17.662,39.429,10.9,36.132,5.1,29.4,0,24.025c1.438.092,3.054-.341,4.433.283,1.171.53,7.036,7.935,9.194,9.7C30.1,47.522,53.33,37.869,68.9,52.126L131.67,29.847C123.6,14.883,104.739,18.585,92.26,9.8,88.81,7.372,86.423,4.258,83.892.938c5.417-2.278,4.1-.053,5.992,2.9,10.845,16.941,36.187,7.991,45.672,26.292" transform="translate(0 0)" fill="#4b4b4d"/>
      <path id="Caminho_23385" data-name="Caminho 23385" d="M53.991,15.2c-6.909,7.9,3.757,15.834,10.183,19.554,12.881,7.457,36.991,13.571,51.361,8.958,13.028-4.183,7.577-13.314-.482-19.294l-9.665-5.9c7.717,1.965,28.443,15.244,18.063,24.216C109.038,55.2,56.882,44.376,49.833,25.754c-1.808-4.778-.554-8.429,4.159-10.552" transform="translate(-21.769 -6.748)" fill="#4b4b4d"/>
    </g>
  </g>
</svg>
