<svg xmlns="http://www.w3.org/2000/svg" width="500" height="118.942" viewBox="0 0 500 118.942">
  <g id="penha" transform="translate(-188.14 -154.787)">
    <path id="Path_21900" data-name="Path 21900" d="M348.454,244.349a2.184,2.184,0,0,0,2.874.021L367.4,230.415V212.408l-16.484,15.079a1.545,1.545,0,0,1-2.077.009l-24.084-21.7V157.086a2.057,2.057,0,0,0-3.4-1.556l-33.282,28.947-34.536-29.228a1.915,1.915,0,0,0-3.155,1.459v48.749l-22.873,21.889a2.63,2.63,0,0,1-3.567.066L191.1,198.323a1.791,1.791,0,0,0-2.961,1.362v74.044H367.4V261.654H324.922V223.315Zm-97.9,17.3H200.139v-36.8a.913.913,0,0,1,1.523-.681l22.31,19.748a2.079,2.079,0,0,0,2.746,0l22.31-19.748a.914.914,0,0,1,1.526.681Zm62.142,0H262.617V182.411a1.147,1.147,0,0,1,1.914-.854l21.64,19.37a2.57,2.57,0,0,0,3.449-.009L310.772,181.6a1.149,1.149,0,0,1,1.923.844Z" transform="translate(0)" fill="#00a1d3"/>
    <path id="Path_21901" data-name="Path 21901" d="M265.152,246.462l21.181,0v-56.8h6.133s8.641.279,8.641,9.336-11.15,11.15-11.15,11.15v14.492s4.6.028,6.133,0c0,0,26.757-2.368,26.757-25.084,0-24.11-26.619-24.805-26.619-24.805H277.773c-6.971,0-12.621,4.738-12.621,15.469Z" transform="translate(105.146 27.265)" fill="#4d4e50"/>
    <path id="Path_21902" data-name="Path 21902" d="M290.663,246.464h45.989V231.475h-26.2V217.122h22.019V208.3a5.954,5.954,0,0,0-5.953-5.954H310.175v-12.68h26.477V174.757H304.389a13.725,13.725,0,0,0-13.726,13.724Z" transform="translate(139.977 27.265)" fill="#4d4e50"/>
    <path id="Path_21903" data-name="Path 21903" d="M311.305,246.464h19.379V207.358s27.7,37.661,36.767,38.382h9.317V174.757H357.762V213.2s-27.452-38.247-37.512-38.439h-8.946Z" transform="translate(168.16 27.265)" fill="#4d4e50"/>
    <path id="Path_21904" data-name="Path 21904" d="M340.785,246.462H361.5V217.614h22.66v28.847h20.99v-71.7H384.574v28.124H372.081c-6.587,0-10.582,5.7-10.582,5.7V174.757H340.785Z" transform="translate(208.409 27.265)" fill="#4d4e50"/>
    <path id="Path_21905" data-name="Path 21905" d="M412.662,174.769h-4.248s-11.763-1.223-17.3,14.495l-21.976,57.215h20.42l3.967-10.594h21.543l4.258,10.594h21.685Zm-10.346,47.366c-3.706,0-6.746,5.719-6.928,6.076l8.279-29.034,8.293,22.958Z" transform="translate(247.126 27.251)" fill="#4d4e50"/>
  </g>
</svg>
