<svg xmlns="http://www.w3.org/2000/svg" width="500" height="118.897" viewBox="0 0 500 118.897">
  <g id="gipsyy" transform="translate(-2524.852 566.427)">
    <g id="Group_1054" data-name="Group 1054" transform="translate(2568.206 -566.427)">
      <path id="Path_6398" data-name="Path 6398" d="M2643.511-505.453a54.3,54.3,0,0,0-.128-11.159,4.814,4.814,0,0,0-2.592-.329c-5.69-.018-11.381,0-17.071-.019a4.785,4.785,0,0,1-2.64-.364,2.274,2.274,0,0,1-.277-.7q-.056-5.686-.065-11.372a9.386,9.386,0,0,1,.181-1.361,2.779,2.779,0,0,1,2.194-.539c2.309-.019,4.618-.012,6.927-.012q13.854,0,27.709,0c.824,0,1.653-.019,2.471.059a1.6,1.6,0,0,1,1.6,1.572,17.645,17.645,0,0,1,.065,1.976q.006,15.084,0,30.169c0,3.066,0,3.119-2.823,4a33.882,33.882,0,0,1-6.435,1.555c-1.53.168-3.009.75-4.532,1.029-1.847.339-3.718.548-5.576.825-.565.083-1.127.2-1.685.316a3.707,3.707,0,0,1-.946.245c-3.142-.254-6.166.918-9.315.712a9.648,9.648,0,0,0-5.1.55c-2.537-.014-5.089.442-7.6-.336a7.313,7.313,0,0,0-1.948-.23c-1.319-.035-2.64.02-3.958-.032a20.43,20.43,0,0,1-2.18-.31,12.923,12.923,0,0,0-1.936-.279,28.026,28.026,0,0,1-5.552-.951,62.964,62.964,0,0,1-6.4-1.7,33.375,33.375,0,0,1-4.111-1.638,53.368,53.368,0,0,1-8.027-4.323,35.211,35.211,0,0,1-9.088-9.26,27.621,27.621,0,0,1-3.468-7.309c-.854-2.691-1.8-5.456-1.589-8.4a6.494,6.494,0,0,0-.321-2.17,7.463,7.463,0,0,1-.009-4.129,5.5,5.5,0,0,0,.326-1.921c-.284-2.952.926-5.639,1.441-8.443a20.448,20.448,0,0,1,1.21-2.693,21.242,21.242,0,0,1,2.486-4.777c1.821-2.72,3.71-5.407,6.574-7.222,1.382-.875,2.614-1.982,3.963-2.913a39.3,39.3,0,0,1,11.368-5.23c2.828-.831,5.643-1.719,8.509-2.388a41.436,41.436,0,0,1,5.827-.784c1.547-.134,3.116.1,4.62-.557a4.507,4.507,0,0,1,1.714-.118q5.442-.013,10.885,0a7.336,7.336,0,0,1,2.667.384,7.111,7.111,0,0,0,2.186.259c1.555.066,3.139-.167,4.62.541a1.264,1.264,0,0,0,.487.069c4.135.123,8.024,1.456,12,2.393a69.461,69.461,0,0,1,7.571,2.1c.308.11.628.192.928.322a1.9,1.9,0,0,1,1.3,1.887c-.021,3.957-.01,7.913-.013,11.87a3.438,3.438,0,0,1-.042.492.893.893,0,0,1-1.214.833,1.161,1.161,0,0,1-.233-.083,59.268,59.268,0,0,0-7.54-3.017,49.916,49.916,0,0,0-5.87-1.757c-2.53-.652-5.082-1.219-7.632-1.787-.556-.124-1.148-.075-1.718-.15-.808-.106-1.608-.267-2.415-.381a16.433,16.433,0,0,0-2.193-.249q-7.051-.034-14.1.006a15.721,15.721,0,0,0-2.417.356,11.312,11.312,0,0,1-1.2.242c-5.8.317-11,2.434-16,5.189a1.917,1.917,0,0,0-.43.238c-2.588,2.521-5.513,4.786-7.158,8.088a15.791,15.791,0,0,0-1.96,6.546,4.261,4.261,0,0,1-.136,1.221,10.67,10.67,0,0,0,.009,7,2.763,2.763,0,0,1,.119.975,10.546,10.546,0,0,0,1.317,4.946c2.048,4.354,2.969,5.661,6.619,8.764a22.505,22.505,0,0,0,7.058,3.96c.927.332,1.876.6,2.807.924a26.1,26.1,0,0,0,8.139,1.666,1.969,1.969,0,0,1,.736.055c1.971.874,4.054.541,6.1.575,2.226.038,4.453.013,6.68.006a6.949,6.949,0,0,0,3.39-.474,1.309,1.309,0,0,1,.72-.133,15.832,15.832,0,0,0,5.334-.759A25.493,25.493,0,0,0,2643.511-505.453Z" transform="translate(-2569 566.427)" fill="#173f90"/>
      <path id="Path_6399" data-name="Path 6399" d="M2834.191-542.734c.035,1.009.089,1.907.093,2.8q.016,3.585-.01,7.169a4.368,4.368,0,0,1-.2,1.449,1.016,1.016,0,0,1-.761.458,2.184,2.184,0,0,1-.923-.287,69.018,69.018,0,0,0-9.809-3.183,51.077,51.077,0,0,0-5.079-.811c-.162-.026-.336.006-.492-.035-4.382-1.175-8.847-.333-13.267-.558-1.886.546-3.907.543-5.717,1.339a4.468,4.468,0,0,0-1.691,1.358,2.321,2.321,0,0,0,.749,3.22,18.11,18.11,0,0,0,4.773,1.965c3.556.927,7.15,1.74,10.744,2.467a76.61,76.61,0,0,1,12.294,3.355,33.633,33.633,0,0,1,7.312,3.523,14.653,14.653,0,0,1,6.386,9.064,10.176,10.176,0,0,1,.079,3.927c-.5,2.469-.927,5.026-2.6,7.064a17.108,17.108,0,0,1-5.291,4.726,47.427,47.427,0,0,1-9.286,3.183,6.933,6.933,0,0,1-1.477.089,4.44,4.44,0,0,0-1.471.091c-1.9.819-3.891.543-5.851.563-3.3.034-6.594.015-9.892.006a7.845,7.845,0,0,1-3.873-.518,1.064,1.064,0,0,0-.483-.089c-2.565,0-4.992-.835-7.488-1.206a48.688,48.688,0,0,1-7.824-2.047,19.208,19.208,0,0,1-2.072-.956c-.034-1.4-.079-2.706-.094-4.011-.016-1.4-.034-2.8.006-4.2.037-1.294-.218-2.621.252-3.807.684-.465,1.2-.116,1.719.09,2.357.946,4.666,2.043,7.076,2.822,2.09.677,4.316.918,6.439,1.505,2.01.555,4.113.323,6.074.741a39.278,39.278,0,0,0,7.6.5,8.306,8.306,0,0,0,3.886-.473,2.557,2.557,0,0,1,1.218-.126,12.3,12.3,0,0,0,5.439-1.361,4.457,4.457,0,0,0,3.007-3.392c-.673-2.153-2.551-3.068-4.459-3.8a37.574,37.574,0,0,0-4.967-1.355c-2.781-.647-5.556-1.374-8.374-1.807a64.128,64.128,0,0,1-12.543-3.365c-3.234-1.2-6.447-2.616-8.9-5.131a10.674,10.674,0,0,1-3.475-8.124c.035-.74.024-1.484,0-2.225a11.766,11.766,0,0,1,1.908-6.253,13.6,13.6,0,0,1,5.638-4.98,32.684,32.684,0,0,1,9.052-3,32.906,32.906,0,0,1,6.6-.573,4.642,4.642,0,0,0,1.221-.138,12.119,12.119,0,0,1,7.031-.016,9.27,9.27,0,0,0,2.207.161,21.669,21.669,0,0,1,5.124.495c1.386.381,2.887.481,4.337.746a75.289,75.289,0,0,1,8.088,2A14.777,14.777,0,0,1,2834.191-542.734Z" transform="translate(-2572.808 566.089)" fill="#173f90"/>
      <path id="Path_6400" data-name="Path 6400" d="M2709.207-545.491c1-.036,1.9-.1,2.8-.1,13.273-.006,26.546.018,39.82-.023a21.674,21.674,0,0,1,7.877,1.689,27.731,27.731,0,0,1,5.382,2.978c1.29.86,1.9,2.26,2.679,3.489a19.445,19.445,0,0,1,2.046,5.246,20.031,20.031,0,0,1,.619,6.089,9.225,9.225,0,0,1-.433,2.9c-.424,1.221-.332,2.577-.844,3.82a14.523,14.523,0,0,1-6.76,7.837c-.805.415-1.614.822-2.43,1.212a15.948,15.948,0,0,1-5.43,1.432,4.143,4.143,0,0,0-1.225.1c-1.658.735-3.4.524-5.116.528-7.007.015-14.014,0-21.022.016a6.658,6.658,0,0,0-2.874.25c-.65.642-.485,1.422-.488,2.142-.02,3.873-.005,7.746-.018,11.619,0,.9-.062,1.793-.1,2.741a4.565,4.565,0,0,1-1.234.419c-4.121.026-8.242.021-12.364,0a4.62,4.62,0,0,1-1.034-.274c-.082-.5-.188-.972-.227-1.447-.041-.492-.021-.988-.021-1.483q0-23.98.006-47.959A7.272,7.272,0,0,1,2709.207-545.491Zm14.859,25.022a5.3,5.3,0,0,0,2.8.373c6.01.016,12.022-.045,18.031.038a20.741,20.741,0,0,0,5.824-.732,5.776,5.776,0,0,0,3.364-1.9,8.294,8.294,0,0,0-.269-9.025,2.419,2.419,0,0,0-.73-.648,10.138,10.138,0,0,0-4.661-1.415q-11.363-.028-22.725.009a8.464,8.464,0,0,0-1.564.283,58.676,58.676,0,0,0-.329,11.45A12.329,12.329,0,0,0,2724.066-520.469Z" transform="translate(-2571.512 566.053)" fill="#173f90"/>
      <path id="Path_6401" data-name="Path 6401" d="M2921.444-545.165a7.382,7.382,0,0,1,1.346-.376c5.021-.077,10.043-.079,15.092-.011,1.809,2.359,3.524,4.65,5.3,6.891,1.934,2.44,3.943,4.818,5.882,7.253,1.223,1.536,2.344,3.152,3.573,4.683.7.873,1.358,1.873,2.7,2.067a79.261,79.261,0,0,0,5.315-6.74c.966-1.418,2.159-2.678,3.227-4.027,1.22-1.538,2.409-3.1,3.622-4.644,1.113-1.416,2.219-2.839,3.37-4.224a3.126,3.126,0,0,1,2.534-1.3c4.452.043,8.905.024,13.358.042a4.684,4.684,0,0,1,.895.168c.3.529.006.837-.245,1.163q-2.019,2.625-4.032,5.256a6.094,6.094,0,0,1-.485.561c-2.02,2.05-3.61,4.457-5.477,6.622-1.392,1.614-2.788,3.238-4.073,4.926-1.489,1.956-3.254,3.671-4.664,5.7a41.084,41.084,0,0,1-4.119,4.883,6.5,6.5,0,0,0-1.989,4.845c.076,5.768.034,11.538.016,17.307a4.813,4.813,0,0,1-.408,2.792,8.213,8.213,0,0,1-1.3.255c-5.056.243-11,.1-12.845-.3-.6-.767-.4-1.707-.4-2.586-.022-5.275-.012-10.55-.014-15.825,0-.576-.033-1.156,0-1.73a4.4,4.4,0,0,0-1.134-3.179c-.9-1.064-1.794-2.121-2.629-3.248-1.314-1.773-3.028-3.259-4.263-5.077-1.345-1.981-3.326-3.424-4.449-5.561a2.606,2.606,0,0,0-.489-.555,53.3,53.3,0,0,1-5.263-6.479,4.873,4.873,0,0,0-.494-.552,56.675,56.675,0,0,1-5.27-6.473C2923.063-543.425,2922.363-544.115,2921.444-545.165Z" transform="translate(-2575.333 566.053)" fill="#173f90"/>
      <path id="Path_6402" data-name="Path 6402" d="M2887.438-491.37a2.056,2.056,0,0,1-.65.237q-5.812.05-11.624.057a7.366,7.366,0,0,1-1.177-.184,4.015,4.015,0,0,1-.471-2.68c-.02-5.359-.137-10.721.043-16.073.083-2.457-.953-4.187-2.36-5.965-1.627-2.054-3.449-3.94-4.985-6.076-1.24-1.725-2.737-3.267-4.11-4.9a53.236,53.236,0,0,1-3.578-4.372,35.281,35.281,0,0,0-2.342-2.844c-1.31-1.57-2.542-3.207-3.817-4.806-.46-.576-.963-1.118-1.427-1.691-1.126-1.394-2.242-2.8-3.284-4.1.248-.841.8-.791,1.271-.8,2.721-.026,5.442-.027,8.165-.029,1.649,0,3.3.026,4.947,0a3.1,3.1,0,0,1,2.211.907c1.489,1.333,2.408,3.112,3.711,4.587.268.3.4.729.665,1.029,2.463,2.751,4.639,5.719,6.834,8.682,1.555,2.1,3.356,4.014,5.164,6.147.4-.453.749-.855,1.112-1.243.338-.361.717-.687,1.032-1.065.365-.439.668-.929,1.022-1.378,1.168-1.479,2.368-2.933,3.519-4.425,1.85-2.4,3.641-4.842,5.517-7.219,1.371-1.736,2.827-3.406,4.271-5.083a2.467,2.467,0,0,1,1.943-.927c4.618.021,9.235.025,13.853.051a3.119,3.119,0,0,1,.811.284,3.424,3.424,0,0,1-.326.878c-.785,1.05-1.561,2.111-2.427,3.093-.924,1.047-1.8,2.121-2.636,3.243-1.323,1.768-3.037,3.255-4.26,5.081-1.335,1.993-3.169,3.529-4.5,5.529a59.57,59.57,0,0,1-4.273,5.077c-1.16,1.38-2.289,2.785-3.421,4.187a19.935,19.935,0,0,1-1.837,2.294,6.5,6.5,0,0,0-2.195,5.255c.088,5.521.038,11.046.017,16.569A4.067,4.067,0,0,1,2887.438-491.37Z" transform="translate(-2574.007 566.053)" fill="#173f90"/>
      <path id="Path_6403" data-name="Path 6403" d="M2692.818-491.316a3.863,3.863,0,0,1-.909.221q-6.183.024-12.367,0a4.317,4.317,0,0,1-.994-.258,8.519,8.519,0,0,1-.282-1.2c-.053-.573-.036-1.153-.036-1.73q0-23.983.007-47.967a6.039,6.039,0,0,1,.376-3.04c1.435-.552,3.008-.244,4.54-.29,1.648-.049,3.3-.028,4.948-.007a28.489,28.489,0,0,1,4.74.171,9.981,9.981,0,0,1,.373,1.461,19.753,19.753,0,0,1,.035,1.977q0,23.737-.01,47.472C2693.238-493.461,2693.471-492.361,2692.818-491.316Z" transform="translate(-2570.962 566.054)" fill="#173f90"/>
    </g>
    <g id="Group_1055" data-name="Group 1055" transform="translate(2524.852 -477.925)">
      <path id="Path_6404" data-name="Path 6404" d="M2897.954-475.377c1.674,2.955,1.674,2.955,4.495,1.745a7.183,7.183,0,0,0,1.367-.609c1.968-1.4,4.351-1.663,6.559-1.8a8.583,8.583,0,0,1,6.681,2.086,4.347,4.347,0,0,0,5.487.726c.8-.4,1.671-.693,2.436-1.157,1.948-1.179,4.187-1.307,6.32-1.692a7.693,7.693,0,0,1,3.495.594,12.247,12.247,0,0,1,5.442,3.016,5.185,5.185,0,0,1,1.593,2.83c.268,2.374.961,4.676.886,7.115-.125,3.995-.007,8-.048,11.993-.031,3.076-.464,3.468-3.484,3.467-2.812,0-3.061-.209-3.085-3.078-.037-4.5-.024-9-.015-13.493a9.8,9.8,0,0,0-.763-4.083c-1.016-2.3-2.645-3.514-5.122-3.284a15.85,15.85,0,0,0-7.6,2.484,4.723,4.723,0,0,0-2.295,4.255c.058,4.4.017,8.8,0,13.193a24.4,24.4,0,0,1-.129,2.69,1.387,1.387,0,0,1-1.179,1.194,1.92,1.92,0,0,1-.294.059c-4.765.31-5.287-.153-5.22-4.461.069-4.5.015-8.994.013-13.492,0-.5.007-1-.013-1.5-.11-2.838-1.661-4.358-4.513-4.454a10.679,10.679,0,0,0-4.625,1.117,41.5,41.5,0,0,0-4.117,2.426,3.16,3.16,0,0,0-1.573,3.014c.012,3.3-.006,6.6-.016,9.9,0,1.8.027,3.6-.038,5.4-.058,1.55-.5,2.035-1.946,2.083-4.955.165-4.832.13-4.826-4.346.01-6.8-.008-13.593.009-20.39.009-3.6.167-3.743,3.688-3.7C2896.311-475.53,2897.1-475.437,2897.954-475.377Z" transform="translate(-2531.445 476.302)" fill="#feb000"/>
      <path id="Path_6405" data-name="Path 6405" d="M2653.692-475.212a11.586,11.586,0,0,1,4.551-.24c1.047.067,1.525.87,1.878,1.722.647,1.566,1.256,3.149,1.882,4.726,1.179,2.965,2.348,5.933,3.547,8.89.338.832.742,1.639,1.156,2.436.709,1.37,1.529,1.38,2.383.021a9.292,9.292,0,0,0,.809-1.595c1.289-3.355,2.531-6.726,3.833-10.074.65-1.672,1.389-3.309,2.1-4.957a1.917,1.917,0,0,1,1.889-1.221c1.3-.01,2.6.006,3.9-.02a2.437,2.437,0,0,1,2.409,1.456,19.47,19.47,0,0,1,.859,1.91c1.408,3.842,2.757,7.705,4.215,11.527a19.482,19.482,0,0,0,1.819,3.417c.516.813,1.393.752,1.947-.089a11.847,11.847,0,0,0,1.108-2.108c1.549-3.89,3.05-7.8,4.594-11.689.331-.834.872-1.592,1.139-2.44a2.679,2.679,0,0,1,3.21-2c1.072.1,2.2-.225,3.376.522a4.366,4.366,0,0,1-.1,1.314c-1.669,4.269-3.375,8.524-5.077,12.78q-2.167,5.418-4.348,10.827c-.186.462-.4.91-.625,1.357a2.681,2.681,0,0,1-2.611,1.665c-1.1-.02-2.2-.024-3.3,0a2.936,2.936,0,0,1-2.947-2.106c-.646-1.565-1.3-3.126-1.905-4.708-.71-1.865-1.329-3.765-2.052-5.624-.65-1.67-1.355-3.322-2.1-4.952a1.248,1.248,0,0,0-2.206-.227,8.183,8.183,0,0,0-1.314,1.986c-.679,1.553-1.241,3.156-1.847,4.74-1.033,2.7-1.995,5.435-3.114,8.1-1.178,2.808-1.244,2.781-4.2,2.81-.6.006-1.2-.048-1.8,0a3.289,3.289,0,0,1-3.642-2.456c-.52-1.4-1.125-2.766-1.67-4.157-1.457-3.715-2.9-7.439-4.356-11.153-.911-2.319-1.847-4.628-2.776-6.94A5.771,5.771,0,0,1,2653.692-475.212Z" transform="translate(-2527.165 476.292)" fill="#feb000"/>
      <path id="Path_6406" data-name="Path 6406" d="M2812.8-461.339a27.6,27.6,0,0,1-.415,3.55c-1.262,5.137-4.825,8.107-9.609,9.769a39.913,39.913,0,0,1-4.654,1,9.383,9.383,0,0,0-1.713.48,6.915,6.915,0,0,1-5.779-.01,5.344,5.344,0,0,0-1.716-.463,20.159,20.159,0,0,1-8.888-3.277,11.644,11.644,0,0,1-4.748-6.358,13.7,13.7,0,0,1,1-11.518,12.875,12.875,0,0,1,6.618-5.758c3.04-1.343,6.321-1.728,9.552-2.29a5.97,5.97,0,0,1,2.089,0,65.05,65.05,0,0,1,9.048,1.872C2808.2-472.763,2813.3-467.634,2812.8-461.339Zm-19.645-9.751c-1.772-.27-3.79.44-5.79.987a7.9,7.9,0,0,0-5.085,4.363,9.283,9.283,0,0,0-.61,7.2,9.112,9.112,0,0,0,6.023,6.08,18.925,18.925,0,0,0,12.048-.062,8.2,8.2,0,0,0,4.3-2.576,10.286,10.286,0,0,0,.811-11.262,6.938,6.938,0,0,0-2.952-2.852A18.332,18.332,0,0,0,2793.156-471.089Z" transform="translate(-2529.336 476.305)" fill="#feb000"/>
      <path id="Path_6407" data-name="Path 6407" d="M2609.346-460.72a13.457,13.457,0,0,1,3.8-9.909c2.935-3.149,6.586-4.3,10.585-4.93.883-.139,1.773-.248,2.645-.439a9.545,9.545,0,0,1,4.732.054,4.093,4.093,0,0,0,1.16.274c2.263-.066,4.288.8,6.345,1.546,4.423,1.595,7.475,4.457,8.484,9.207.145.679.436,1.327.575,2.006a5.682,5.682,0,0,1,.224,2.061c-.823,4.52-2.263,8.709-6.648,11.1a21.432,21.432,0,0,1-7.523,2.7,8.9,8.9,0,0,0-2.3.542,6.731,6.731,0,0,1-5.5,0,11.719,11.719,0,0,0-2-.529,36.037,36.037,0,0,1-4.927-1.13,14.842,14.842,0,0,1-9.416-10.085A10.564,10.564,0,0,1,2609.346-460.72Zm19.185-10.59a58.98,58.98,0,0,0-6.128,1.185,7.873,7.873,0,0,0-5.783,5.536,14.056,14.056,0,0,0-.417,3.531c-.043,4.717,2.54,7.491,6.72,8.69a20.677,20.677,0,0,0,11.493.006,8.45,8.45,0,0,0,5.725-4.876,10.351,10.351,0,0,0,.468-6.7,8.607,8.607,0,0,0-5.875-6.194A16.993,16.993,0,0,0,2628.531-471.311Z" transform="translate(-2526.37 476.305)" fill="#feb000"/>
      <path id="Path_6408" data-name="Path 6408" d="M2565.973-461.462q0-5.243,0-10.484c0-.5-.007-1,.028-1.5.11-1.551.491-1.968,1.962-2.068a22.951,22.951,0,0,1,2.4-.022c1.827.068,1.834.087,2.484,1.911.1.281.115.661.312.824.354.295.835.668,1.229.631a6.937,6.937,0,0,0,1.977-.649c1.2-.5,2.377-1.044,3.56-1.58,2.491-1.127,5.245-1.112,7.838-1.8a1.33,1.33,0,0,1,.6-.019,40.091,40.091,0,0,1,6.112,1.3,9.7,9.7,0,0,1,4.935,4.58,2.4,2.4,0,0,1,.346.819,57.038,57.038,0,0,1,.786,6.213c.122,4.19.036,8.387.035,12.581,0,.3,0,.6-.016.9-.131,2.14-.614,2.631-2.69,2.739-3.594.187-3.865-.065-3.882-3.779-.017-3.794-.011-7.588-.007-11.383a9.443,9.443,0,0,0-.671-3.795c-.627-1.481-1.081-3.02-2.7-3.775a9.172,9.172,0,0,0-5.773-1.133,26.5,26.5,0,0,0-8.2,2.722c-.6.349-1.176.745-1.775,1.1a4.112,4.112,0,0,0-2.092,3.98c.08,4.192.033,8.388.01,12.581-.02,3.324-.247,3.525-3.609,3.493-2.939-.027-3.159-.23-3.182-3.313C2565.951-454.073,2565.973-457.768,2565.973-461.462Z" transform="translate(-2525.591 476.304)" fill="#feb000"/>
      <path id="Path_6409" data-name="Path 6409" d="M2730.918-461.264q0-5.1,0-10.2c0-.7-.01-1.4.045-2.1.117-1.463.539-1.859,2.086-1.961.7-.046,1.4,0,2.1-.027,1.38-.059,2.34.412,2.556,1.908a2.1,2.1,0,0,0,.183.57,1.368,1.368,0,0,0,1.946.818,40.029,40.029,0,0,0,4.5-1.643c2.565-1.219,5.34-1.595,8.046-2.255a2.319,2.319,0,0,1,.895-.061c2.948.468,6,.706,8.465,2.622a9.1,9.1,0,0,1,3.776,7.166c.072,3.4.028,6.8.028,10.2,0,2.3.03,4.6-.029,6.9-.045,1.806-.4,2.191-2.078,2.232-4.306.1-4.5.173-4.491-4.112q.016-5.1-.008-10.2c-.006-1.1-.044-2.2-.144-3.293-.379-4.116-2.728-5.916-6.663-6.362a13.057,13.057,0,0,0-5.582.91,27.9,27.9,0,0,0-5.978,2.7,5.745,5.745,0,0,0-3.058,5.41c.076,3.1.012,6.2.008,9.3,0,.7.006,1.4,0,2.1-.044,3.449-.277,3.665-3.834,3.578-2.462-.061-2.722-.28-2.749-2.8-.041-3.8-.011-7.6-.011-11.4Z" transform="translate(-2528.554 476.304)" fill="#feb000"/>
      <path id="Path_6410" data-name="Path 6410" d="M3030.33-469.558a25.127,25.127,0,0,1-2.651-.411,40.956,40.956,0,0,0-13.077-1.071,6.6,6.6,0,0,0-2.553.718,1.915,1.915,0,0,0-.365,3.407,8.593,8.593,0,0,0,2.928,1.387c2.4.655,4.843,1.145,7.265,1.716.874.206,1.729.506,2.61.667,3.2.584,5.6,2.491,7.869,4.654a2.9,2.9,0,0,1,1.027,2.376,2.889,2.889,0,0,0,.011.6c.409,2.757-1.088,4.595-3.142,5.976a14.172,14.172,0,0,1-6.665,2.5,8.9,8.9,0,0,0-2.3.558,9.267,9.267,0,0,1-6.138.081,13.165,13.165,0,0,0-2.885-.631,20.851,20.851,0,0,1-6.076-1.5c-1.841-.705-2.115-1.184-2.119-3.131a6.819,6.819,0,0,1,.058-.9,1.2,1.2,0,0,1,1.716-1.075c1.82.523,3.622,1.12,5.462,1.553a20.038,20.038,0,0,0,3.837.5c2.1.077,4.2,0,6.3.006a5.835,5.835,0,0,0,3.873-1.377,2.2,2.2,0,0,0-.052-3.606,6.916,6.916,0,0,0-2.381-1.2c-2.8-.71-5.646-1.238-8.448-1.942a23.864,23.864,0,0,1-7.7-3.18c-3.865-2.6-3.275-8.469.08-10.4,2.1-1.209,4.161-2.369,6.686-2.331a11.933,11.933,0,0,0,1.761-.323,11.675,11.675,0,0,1,2.664-.288c2.376.222,4.746.553,7.108.913,1.077.164,2.126.512,3.194.752,1.832.411,2.334.978,2.376,2.873A16.714,16.714,0,0,1,3030.33-469.558Z" transform="translate(-2533.462 476.304)" fill="#feb000"/>
      <path id="Path_6411" data-name="Path 6411" d="M2555.664-474.832a11.58,11.58,0,0,1-1.083,1c-2.6,1.851-5.223,3.662-7.81,5.526-2.266,1.633-4.517,3.286-6.725,4.995-1.158.9-1.2,1.838-.135,2.713,1.384,1.136,2.845,2.181,4.3,3.231,2.747,1.985,5.511,3.945,8.269,5.915.809.578,1.642,1.125,2.421,1.74s1.486,1.282,2.482,2.151a12.221,12.221,0,0,1-1.306.471,4.012,4.012,0,0,1-.9.032c-1.8-.028-3.712.313-5.362-.2-1.633-.506-3.031-1.828-4.473-2.873-3.149-2.284-6.259-4.621-9.387-6.934a8.109,8.109,0,0,0-.995-.662c-2.038-1.075-3.03-.566-3.138,1.7-.09,1.894-.028,3.8-.06,5.695a7.749,7.749,0,0,1-.183,2.075c-.122.408-.617.706-.958,1.039a.475.475,0,0,1-.289.063c-1.583.061-3.337.585-4.671-.386-1.267-.923-.668-2.612-.677-3.963-.049-6.6-.026-13.193-.019-19.789,0-.9,0-1.8.089-2.695a1.453,1.453,0,0,1,1.562-1.489,29.634,29.634,0,0,1,3.594.018,1.417,1.417,0,0,1,1.488,1.558c.083,1.495.045,3,.081,4.495a29.511,29.511,0,0,0,.146,2.989,1.243,1.243,0,0,0,1.939,1.071,26.969,26.969,0,0,0,2.837-1.667c3.218-2.188,6.479-4.322,9.587-6.658a9.138,9.138,0,0,1,6.428-1.893A5.273,5.273,0,0,1,2555.664-474.832Z" transform="translate(-2524.852 476.292)" fill="#feb000"/>
      <path id="Path_6412" data-name="Path 6412" d="M2967.417-475.217a14.1,14.1,0,0,1,2.133-.3q12.9-.037,25.792-.012a7.948,7.948,0,0,1,1.49.115c1.01.194,1.372.961,1.315,2.663-.051,1.511-.4,2.139-1.451,2.251-1.089.117-2.194.1-3.292.122-1.8.039-3.6,0-5.393.119a1.849,1.849,0,0,0-1.953,1.881,22.8,22.8,0,0,0-.1,2.693c-.008,4.7,0,9.393,0,14.089,0,.9.006,1.8-.07,2.7-.1,1.192-.533,1.7-1.624,1.774a24.225,24.225,0,0,1-3.292-.006,1.458,1.458,0,0,1-1.515-1.534c-.091-.892-.091-1.8-.093-2.694-.009-4.7.018-9.393-.013-14.089-.032-4.6-.356-4.894-4.965-4.924-1.9-.013-3.8.011-5.7-.066-1.222-.05-1.655-.49-1.74-1.62A4.765,4.765,0,0,1,2967.417-475.217Z" transform="translate(-2532.794 476.292)" fill="#feb000"/>
      <path id="Path_6413" data-name="Path 6413" d="M2866.232-451.937a10.206,10.206,0,0,1,.329,1.442c.186,3.282-.278,3.462-3.256,3.448q-5.7-.025-11.392,0c-2.623,0-5.1-.86-7.645-1.3a7.658,7.658,0,0,1-2.436-1.125,5.268,5.268,0,0,1-2.725-4.387c-.025-.4-.036-.8-.037-1.2,0-5.794-.022-11.587.008-17.38.016-2.891.258-3.091,3.062-3.09,2.979,0,3.465.434,3.5,3.478.05,4.194.014,8.391.023,12.585a26.283,26.283,0,0,0,.068,2.695,4.069,4.069,0,0,0,3.657,3.748,48.139,48.139,0,0,0,10.121.781c1.495-.077,3-.034,4.495.01A22.2,22.2,0,0,1,2866.232-451.937Z" transform="translate(-2530.498 476.291)" fill="#feb000"/>
      <path id="Path_6414" data-name="Path 6414" d="M2880.938-474.858c.064.8.193,1.687.195,2.57q.026,10.942,0,21.883c-.011,3.173-.293,3.411-3.425,3.347a11.137,11.137,0,0,1-1.493-.1,1.76,1.76,0,0,1-1.55-1.595,11.6,11.6,0,0,1-.11-1.791c-.007-7.295-.023-14.588,0-21.883.01-2.9.231-3.1,3.045-3.1A5.1,5.1,0,0,1,2880.938-474.858Z" transform="translate(-2531.135 476.292)" fill="#feb000"/>
      <path id="Path_6415" data-name="Path 6415" d="M2960.021-461.162c0,3.794.037,7.587-.013,11.38-.032,2.43-.357,2.685-2.838,2.725-.3,0-.6.007-.9,0-2.253-.087-2.8-.559-2.808-2.9-.04-7.685-.015-15.372-.006-23.057a6.74,6.74,0,0,1,.119-1.189,1.414,1.414,0,0,1,1.179-1.192,7.606,7.606,0,0,1,1.188-.121c3.819-.2,4.066.027,4.083,3.882.015,3.493,0,6.987,0,10.48Z" transform="translate(-2532.552 476.292)" fill="#feb000"/>
    </g>
  </g>
</svg>
