<?xml version="1.0" encoding="UTF-8"?>
<!DOCTYPE svg PUBLIC "-//W3C//DTD SVG 1.1//EN" "http://www.w3.org/Graphics/SVG/1.1/DTD/svg11.dtd">
<!-- Creator: CorelDRAW -->
<svg xmlns="http://www.w3.org/2000/svg" xml:space="preserve" width="600px" height="258px" version="1.1" style="shape-rendering:geometricPrecision; text-rendering:geometricPrecision; image-rendering:optimizeQuality; fill-rule:evenodd; clip-rule:evenodd"
viewBox="0 0 615.52 264.9"
 xmlns:xlink="http://www.w3.org/1999/xlink"
 xmlns:xodm="http://www.corel.com/coreldraw/odm/2003">
 <defs>
  <style type="text/css">
   <![CDATA[
    .fil0 {fill:#273E74}
    .fil2 {fill:#FEFEFE}
    .fil1 {fill:url(#id0)}
    .fil19 {fill:url(#id1)}
    .fil20 {fill:url(#id2)}
    .fil21 {fill:url(#id3)}
    .fil9 {fill:url(#id4)}
    .fil14 {fill:url(#id5)}
    .fil4 {fill:url(#id6)}
    .fil3 {fill:url(#id7)}
    .fil16 {fill:url(#id8)}
    .fil12 {fill:url(#id9)}
    .fil11 {fill:url(#id10)}
    .fil5 {fill:url(#id11)}
    .fil13 {fill:url(#id12)}
    .fil7 {fill:url(#id13)}
    .fil8 {fill:url(#id14)}
    .fil10 {fill:url(#id15)}
    .fil6 {fill:url(#id16)}
    .fil18 {fill:url(#id17)}
    .fil17 {fill:url(#id18)}
    .fil15 {fill:url(#id19)}
   ]]>
  </style>
  <linearGradient id="id0" gradientUnits="userSpaceOnUse" x1="307.63" y1="269.57" x2="307.93" y2="252.06">
   <stop offset="0" style="stop-opacity:1; stop-color:#D83135"/>
   <stop offset="0.701961" style="stop-opacity:1; stop-color:#D94557"/>
   <stop offset="0.94902" style="stop-opacity:1; stop-color:#F47D35"/>
   <stop offset="1" style="stop-opacity:1; stop-color:#F47D35"/>
  </linearGradient>
  <linearGradient id="id1" gradientUnits="userSpaceOnUse" x1="307.78" y1="169.06" x2="307.78" y2="9.3">
   <stop offset="0" style="stop-opacity:1; stop-color:#263868"/>
   <stop offset="1" style="stop-opacity:1; stop-color:#284B8C"/>
  </linearGradient>
  <linearGradient id="id2" gradientUnits="userSpaceOnUse" xlink:href="#id1" x1="303.23" y1="154.33" x2="234.07" y2="154.33">
  </linearGradient>
  <linearGradient id="id3" gradientUnits="userSpaceOnUse" xlink:href="#id1" x1="312.33" y1="154.33" x2="381.49" y2="154.33">
  </linearGradient>
  <linearGradient id="id4" gradientUnits="userSpaceOnUse" x1="527.51" y1="85.32" x2="479.21" y2="10.94">
   <stop offset="0" style="stop-opacity:1; stop-color:#848688"/>
   <stop offset="0.501961" style="stop-opacity:1; stop-color:#FEFEFE"/>
   <stop offset="0.65098" style="stop-opacity:1; stop-color:#FEFEFE"/>
   <stop offset="1" style="stop-opacity:1; stop-color:#848688"/>
  </linearGradient>
  <linearGradient id="id5" gradientUnits="userSpaceOnUse" x1="118.33" y1="25.38" x2="113.03" y2="58.94">
   <stop offset="0" style="stop-opacity:1; stop-color:#848688"/>
   <stop offset="0.8" style="stop-opacity:1; stop-color:#FEFEFE"/>
   <stop offset="1" style="stop-opacity:1; stop-color:#FEFEFE"/>
  </linearGradient>
  <linearGradient id="id6" gradientUnits="userSpaceOnUse" x1="452.8" y1="142.57" x2="417.22" y2="104.22">
   <stop offset="0" style="stop-opacity:1; stop-color:#848688"/>
   <stop offset="1" style="stop-opacity:1; stop-color:#FEFEFE"/>
  </linearGradient>
  <linearGradient id="id7" gradientUnits="userSpaceOnUse" xlink:href="#id5" x1="434.47" y1="103.52" x2="439.33" y2="132.83">
  </linearGradient>
  <linearGradient id="id8" gradientUnits="userSpaceOnUse" x1="111.85" y1="101.66" x2="154.6" y2="37.13">
   <stop offset="0" style="stop-opacity:1; stop-color:#848688"/>
   <stop offset="0.560784" style="stop-opacity:1; stop-color:#FEFEFE"/>
   <stop offset="0.74902" style="stop-opacity:1; stop-color:#FEFEFE"/>
   <stop offset="1" style="stop-opacity:1; stop-color:#A9ABAE"/>
  </linearGradient>
  <linearGradient id="id9" gradientUnits="userSpaceOnUse" xlink:href="#id6" x1="162.72" y1="142.57" x2="198.3" y2="104.22">
  </linearGradient>
  <linearGradient id="id10" gradientUnits="userSpaceOnUse" xlink:href="#id5" x1="181.05" y1="103.52" x2="176.19" y2="132.83">
  </linearGradient>
  <linearGradient id="id11" gradientUnits="userSpaceOnUse" xlink:href="#id5" x1="459.06" y1="75.11" x2="464.35" y2="107.52">
  </linearGradient>
  <linearGradient id="id12" gradientUnits="userSpaceOnUse" xlink:href="#id5" x1="156.46" y1="75.11" x2="151.17" y2="107.52">
  </linearGradient>
  <linearGradient id="id13" gradientUnits="userSpaceOnUse" xlink:href="#id5" x1="479.41" y1="49.95" x2="484.71" y2="83.46">
  </linearGradient>
  <linearGradient id="id14" gradientUnits="userSpaceOnUse" xlink:href="#id8" x1="503.67" y1="101.66" x2="460.93" y2="37.13">
  </linearGradient>
  <linearGradient id="id15" gradientUnits="userSpaceOnUse" x1="477.4" y1="120.31" x2="444.6" y2="71.29">
   <stop offset="0" style="stop-opacity:1; stop-color:#848688"/>
   <stop offset="0.819608" style="stop-opacity:1; stop-color:#FEFEFE"/>
   <stop offset="1" style="stop-opacity:1; stop-color:#FEFEFE"/>
  </linearGradient>
  <linearGradient id="id16" gradientUnits="userSpaceOnUse" xlink:href="#id5" x1="497.19" y1="25.38" x2="502.5" y2="58.94">
  </linearGradient>
  <linearGradient id="id17" gradientUnits="userSpaceOnUse" xlink:href="#id15" x1="138.12" y1="120.31" x2="170.92" y2="71.29">
  </linearGradient>
  <linearGradient id="id18" gradientUnits="userSpaceOnUse" xlink:href="#id4" x1="88.01" y1="85.32" x2="136.31" y2="10.94">
  </linearGradient>
  <linearGradient id="id19" gradientUnits="userSpaceOnUse" xlink:href="#id5" x1="136.12" y1="49.95" x2="130.81" y2="83.46">
  </linearGradient>
 </defs>
 <g id="Layer_x0020_1">
  <metadata id="CorelCorpID_0Corel-Layer"/>
  <path class="fil0" d="M490.57 241.44l-10.48 0 -2.44 -6.58 -13.56 0 -2.6 6.58 -10.37 0 14.52 -37.81 10.71 0 14.22 37.81zm-15.53 -14.06l-4.11 -12.07 -4.16 12.07 8.27 0zm74.74 1.49c0,6.4 -2.8,10.56 -8.4,12.5 -1.95,0.69 -4.05,1.03 -6.3,1.03 -4.72,0 -9.1,-1.43 -13.13,-4.28l4.19 -7.91c2.95,2.69 5.83,4.03 8.66,4.03 1.26,0 2.35,-0.31 3.23,-0.9 1.03,-0.67 1.55,-1.63 1.55,-2.86 0,-1.13 -0.57,-2.06 -1.71,-2.81 -0.85,-0.56 -2.29,-1.13 -4.29,-1.71 -2.44,-0.72 -3.97,-1.22 -4.59,-1.49 -1,-0.43 -1.85,-0.93 -2.55,-1.49 -2.02,-1.67 -3.02,-4.18 -3.02,-7.53 0,-3.51 1.04,-6.41 3.13,-8.72 2.43,-2.71 5.68,-4.06 9.73,-4.06 4.07,0 8.06,1.02 11.97,3.07l-3.91 7.64c-2.15,-1.7 -4.3,-2.55 -6.48,-2.55 -1.05,0 -2,0.27 -2.83,0.81 -0.93,0.61 -1.4,1.43 -1.4,2.46 0,1 0.61,1.87 1.85,2.59 0.55,0.34 2.21,0.91 4.98,1.73 3.46,1.02 5.94,2.46 7.41,4.33 1.28,1.59 1.91,3.63 1.91,6.12zm-138.21 -6.36c0,-2.61 -0.73,-4.9 -2.18,-6.84 -1.95,-2.58 -4.83,-3.88 -8.68,-3.88l-2.24 0 0 21.48 2.24 0c3.87,0 6.75,-1.29 8.68,-3.87 1.45,-1.96 2.18,-4.26 2.18,-6.89zm10.2 0c0,3.94 -1.18,7.58 -3.55,10.93 -2.37,3.36 -5.4,5.68 -9.09,6.97 -1.95,0.68 -3.94,1.03 -5.97,1.03l-14.49 0 0 -37.81 14.49 0c3.54,0 6.82,0.99 9.84,2.97 2.97,1.91 5.25,4.48 6.83,7.7 1.3,2.65 1.94,5.39 1.94,8.21zm-71.49 18.93l-9.8 0 0 -37.81 9.8 0 0 37.81zm-48.19 0l-9.8 0 -18.08 -23.16 0 23.16 -9.81 0 0 -37.81 9.81 0 18.08 23.13 0 -23.13 9.8 0 0 37.81zm-73.19 -16.02c0,2.27 -0.18,4.22 -0.55,5.82 -0.58,2.49 -1.94,4.76 -4.1,6.81 -3.06,2.9 -7.15,4.35 -12.27,4.35 -5.23,0 -9.3,-1.47 -12.23,-4.43 -1.55,-1.55 -2.6,-3.5 -3.18,-5.85 -0.41,-1.65 -0.6,-3.89 -0.6,-6.7l0 -21.79 9.8 0 0 20.42c0,1.65 0.03,2.87 0.09,3.68 0.18,2.56 1.35,4.34 3.51,5.36 0.89,0.43 1.86,0.64 2.94,0.64 2.4,0 4.2,-0.84 5.42,-2.52 0.91,-1.23 1.36,-3.62 1.36,-7.16l0 -20.42 9.81 0 0 21.79zm-141.87 15.83l0 0.02 0 0.15 0 0.02 10.1 0 0 -0.02c0,-4.22 -1.64,-8.06 -4.32,-10.91 2.68,-2.86 4.32,-6.7 4.32,-10.92 0,-8.81 -7.15,-15.96 -15.96,-15.96l-5.58 0 -9.81 0 0 37.81 9.81 0 0 -5.88 0 -0.7 5.63 0c3.16,0.03 5.73,2.86 5.81,6.39zm-11.44 -15.79l0 -4.88 0 -6.85 5.58 0c3.24,0 5.86,2.62 5.86,5.86 0,3.23 -2.6,5.84 -5.81,5.87l-5.63 0zm83.97 15.98l-27.83 0 0 -37.81 27.83 0 0 8.16 -18.02 0 0 6.52 17.4 0 0 8.16 -17.4 0 0 6.8 18.02 0 0 8.17z"/>
  <polygon class="fil1" points="39.77,264.9 575.79,264.9 575.79,256.73 39.77,256.73 "/>
  <path class="fil2" d="M373.45 149.52c6.9,7.5 12.5,16.16 16.49,25.59l5.39 12.74 -64.77 0 -2.55 -2.14c-5.7,-4.78 -12.8,-7.35 -20.23,-7.35 -7.43,0 -14.53,2.57 -20.22,7.35l-2.56 2.14 -64.77 0 5.4 -12.74c3.99,-9.43 9.58,-18.08 16.48,-25.59 -1.51,-1.65 -2.95,-3.34 -4.33,-5.08 -7.85,0.39 -15.69,1.08 -23.53,1.72 -12.62,1.04 -26.21,2.14 -38.77,0.28 -12.6,-1.87 -24.94,-5.97 -35.35,-13.47 -5.83,-4.21 -10.06,-8.71 -14.31,-14.42 -0.65,-0.87 -1.34,-1.73 -2.06,-2.55 -0.43,-0.12 -0.87,-0.24 -1.3,-0.36 -2.44,-0.72 -4.86,-1.55 -7.23,-2.49 -1,-0.39 -1.99,-0.8 -2.97,-1.25 -5.14,-2.36 -9.86,-5.09 -14.29,-8.62 -1.49,-1.18 -2.92,-2.43 -4.3,-3.75 -2.12,-2.05 -4.09,-4.26 -5.91,-6.59 -1.27,-1.63 -2.42,-3.27 -3.79,-4.83 -1.1,-0.29 -2.18,-0.6 -3.27,-0.94 -5.59,-1.73 -11.08,-4.07 -16.11,-7.08 -1.94,-1.16 -3.81,-2.41 -5.63,-3.77 -3.01,-2.22 -5.76,-4.75 -8.31,-7.49 -1.81,-1.97 -3.38,-4 -4.98,-6.14 -0.68,-0.9 -1.4,-1.8 -2.15,-2.64 -1.16,-0.31 -2.31,-0.64 -3.45,-1 -4.4,-1.38 -8.65,-3.1 -12.73,-5.24 -5.3,-2.78 -10.19,-6.23 -14.5,-10.36 -3.07,-2.94 -5.38,-5.85 -7.9,-9.2 -0.9,-1.18 -1.88,-2.25 -2.83,-3.38 -1.86,-2.21 -2.74,-5.09 -1.61,-7.91 1.57,-3.92 4.84,-4.5 8.38,-4.74 51.08,-3.45 168.8,-4.85 217.93,33.56 14.14,-30.57 45.08,-51.78 80.97,-51.78 35.89,0 66.82,21.2 80.96,51.76 49.15,-38.38 166.83,-36.99 217.9,-33.54 3.55,0.24 6.81,0.82 8.38,4.74 1.13,2.82 0.25,5.7 -1.6,7.91 -0.95,1.13 -1.94,2.2 -2.83,3.38 -2.53,3.35 -4.84,6.26 -7.9,9.2 -4.32,4.13 -9.21,7.58 -14.5,10.36 -4.08,2.14 -8.34,3.86 -12.73,5.24 -1.15,0.36 -2.3,0.69 -3.46,1 -0.75,0.84 -1.46,1.74 -2.14,2.64 -1.61,2.14 -3.17,4.17 -4.99,6.14 -2.54,2.74 -5.3,5.27 -8.31,7.49 -1.81,1.36 -3.68,2.61 -5.63,3.77 -5.03,3.01 -10.51,5.35 -16.11,7.08 -1.08,0.34 -2.17,0.65 -3.26,0.94 -1.38,1.56 -2.53,3.2 -3.8,4.83 -1.81,2.33 -3.79,4.54 -5.91,6.59 -1.37,1.32 -2.8,2.57 -4.29,3.75 -4.44,3.53 -9.16,6.26 -14.3,8.62 -0.98,0.45 -1.97,0.86 -2.97,1.25 -2.37,0.94 -4.78,1.77 -7.23,2.49 -0.43,0.12 -0.86,0.24 -1.29,0.36 -0.72,0.82 -1.42,1.68 -2.06,2.55 -4.26,5.71 -8.48,10.21 -14.32,14.42 -10.4,7.5 -22.74,11.6 -35.34,13.47 -12.57,1.86 -26.16,0.76 -38.78,-0.28 -7.82,-0.64 -15.65,-1.33 -23.49,-1.72 -1.38,1.74 -2.82,3.43 -4.33,5.08z"/>
  <path class="fil3" d="M406.46 109.24l-0.11 0 -0.11 0c-2.25,0 -4.51,0.04 -6.78,0.13 -1.61,0.06 -3.23,0.13 -4.85,0.2 -1.76,7.51 -4.48,14.74 -8.09,21.52 20.5,1.43 40.19,4 55.42,2.3 30.02,-3.36 38.21,-16.27 42.22,-20.18 1.57,-1.53 2.75,-2.37 3.36,-2.85l0 0c0.16,-0.19 0.28,-0.35 0.37,-0.48 -2.75,0.68 -5.69,1.27 -8.84,1.74 -12.26,1.82 -26.53,0.54 -41.89,-0.74 -9.87,-0.82 -20.18,-1.64 -30.7,-1.64z"/>
  <path class="fil4" d="M484.16 113.21c-4.01,3.91 -12.2,16.82 -42.22,20.18 -15.23,1.7 -34.92,-0.87 -55.42,-2.3 -1.22,2.28 -2.54,4.51 -3.95,6.69 20.89,1.3 40.39,4.2 56.46,1.82 30.02,-4.46 41.12,-19.79 45.13,-25.18l0.29 -0.38c1.4,-1.85 2.48,-2.98 3.07,-3.68 -0.61,0.48 -1.79,1.32 -3.36,2.85z"/>
  <path class="fil5" d="M446.88 81.17l-0.22 0c-2.24,0.01 -4.49,0.05 -6.74,0.13l-1.34 0.05 0 0 -1.34 0.06 0 0 -1.33 0.06 -0.01 0 -1.33 0.06 -0.01 0 -1.33 0.06 -0.01 0 -1.33 0.07 -0.01 0 -1.33 0.07 -0.01 0 -1.32 0.07 -0.02 0 -1.32 0.08 -0.02 0 -1.32 0.08 -0.01 0 -1.33 0.08 -0.01 0c-9.47,0.61 -18.93,1.48 -28.34,2.73 0.07,1.46 0.11,2.93 0.11,4.41 0,4.5 -0.34,8.96 -1,13.35 1.16,-0.05 2.33,-0.09 3.5,-0.13 13.35,-0.42 27.06,0.67 40.09,1.76 15.71,1.31 30.43,2.62 42.39,1.29 29.82,-3.33 37.96,-16.16 41.94,-20.05 1.56,-1.52 2.74,-2.35 3.34,-2.84l0 0c0.21,-0.24 0.35,-0.43 0.43,-0.58l-0.48 0.11 -0.12 0.03 -0.12 0.03 -0.24 0.05 -0.13 0.03 -0.12 0.03 -0.12 0.02 -0.37 0.09 -0.12 0.02 -0.62 0.14 -0.12 0.02 -0.13 0.03 -0.24 0.05 -0.01 0 -0.12 0.03 -0.63 0.12 -0.13 0.03 -0.13 0.02 -0.25 0.05 -0.13 0.02 -0.9 0.17 -0.13 0.03 -0.05 0 -0.09 0.02 -0.01 0c-0.34,0.06 -0.69,0.12 -1.04,0.18l-0.13 0.02 -0.09 0.01 -0.04 0.01 -0.13 0.02c-0.4,0.07 -0.81,0.13 -1.21,0.19 -12.27,1.82 -26.54,0.54 -41.91,-0.74 -9.87,-0.82 -20.19,-1.64 -30.71,-1.64z"/>
  <path class="fil6" d="M391.51 58.42c0.88,2.39 1.66,4.84 2.33,7.32 0.6,-0.18 1.2,-0.35 1.8,-0.52 20.32,-12.23 48.98,-17.82 84.72,-18.95 13.36,-0.43 27.06,0.66 40.09,1.75 15.71,1.31 30.43,2.62 42.39,1.29 29.82,-3.33 37.96,-16.16 41.94,-20.04 1.56,-1.52 2.74,-2.36 3.34,-2.84 0.99,-1.18 0.59,-1.13 -1.94,-1.31 -15.27,-1.03 -31.88,-1.64 -48.96,-1.64 -63.47,0 -133.52,8.41 -165.71,34.94z"/>
  <path class="fil7" d="M487.36 53.1l-0.21 0c-2.26,0.01 -4.52,0.05 -6.79,0.13l-1.33 0.05 0 0 -1.32 0.06 -0.02 0 -1.31 0.06 -0.03 0 -1.3 0.06 -0.04 0 -1.29 0.06 -0.05 0 -1.28 0.07 -0.06 0 -1.27 0.07 -1.33 0.07 -0.07 0.01 -1.26 0.07 -0.08 0 -1.25 0.08 -0.09 0.01 -1.24 0.07 -0.1 0.01 -1.22 0.08 -1.33 0.09 -0.12 0.01c-22.08,1.54 -44.07,4.61 -65.42,10.52l-0.12 0.04 -1.16 0.33 -0.1 0.02c-0.78,0.23 -1.56,0.45 -2.33,0.68 1.15,4.21 1.99,8.54 2.51,12.97 13.03,-2.48 27.59,-3.88 43.57,-4.38 13.35,-0.43 27.05,0.66 40.08,1.75 15.71,1.31 30.43,2.62 42.39,1.29 29.82,-3.33 37.96,-16.16 41.94,-20.04 1.56,-1.53 2.74,-2.36 3.34,-2.84l0 0c0.21,-0.25 0.35,-0.44 0.43,-0.59l-0.48 0.11 -0.12 0.03 -0.12 0.03 -0.25 0.05 -0.12 0.03 -0.12 0.03 -0.12 0.03 -0.37 0.08 -0.12 0.03 -0.12 0.02 -0.13 0.03 -0.24 0.05 -0.13 0.03 -0.12 0.02 -0.13 0.03 -0.25 0.05 -0.12 0.03 -0.63 0.12 -0.13 0.03 -0.13 0.02 -0.25 0.05 -0.13 0.03 -0.91 0.16 -0.12 0.03 -0.05 0.01 -0.08 0.01 -0.03 0.01 -1.03 0.17 -0.13 0.02 -0.09 0.02 -0.04 0 -0.14 0.02c-0.39,0.07 -0.8,0.13 -1.2,0.19 -12.26,1.82 -26.53,0.54 -41.89,-0.73 -9.86,-0.82 -20.18,-1.65 -30.7,-1.65z"/>
  <path class="fil8" d="M564.33 57.34c-3.98,3.88 -12.12,16.71 -41.94,20.04 -11.96,1.33 -26.68,0.02 -42.39,-1.29 -13.03,-1.09 -26.73,-2.18 -40.08,-1.75 -15.98,0.5 -30.54,1.9 -43.57,4.38 0.23,2 0.4,4.01 0.5,6.05 14.28,-1.9 28.69,-2.92 43.07,-3.47 12.93,-0.49 25.63,0.51 37.67,1.51 15.37,1.28 29.64,2.56 41.91,0.74 29.82,-4.43 40.85,-19.66 44.83,-25.01l0.29 -0.38c1.4,-1.85 2.47,-2.97 3.05,-3.66 -0.6,0.48 -1.78,1.31 -3.34,2.84z"/>
  <path class="fil9" d="M604.78 29.27c-3.98,3.88 -12.12,16.71 -41.94,20.04 -11.96,1.33 -26.68,0.02 -42.39,-1.29 -13.03,-1.09 -26.73,-2.18 -40.09,-1.75 -35.76,1.13 -64.42,6.72 -84.75,18.96 27.56,-7.88 56.21,-10.91 84.75,-12 12.94,-0.49 25.66,0.51 37.7,1.52 15.36,1.27 29.63,2.55 41.89,0.73 29.82,-4.42 40.85,-19.66 44.83,-25.01l0.29 -0.38c1.4,-1.84 2.46,-2.96 3.05,-3.66 -0.6,0.48 -1.78,1.32 -3.34,2.84z"/>
  <path class="fil10" d="M523.88 85.4c-3.98,3.89 -12.12,16.72 -41.94,20.05 -11.96,1.33 -26.68,0.02 -42.39,-1.29 -13.03,-1.09 -26.74,-2.18 -40.09,-1.76 -1.17,0.04 -2.34,0.08 -3.5,0.13 -0.36,2.37 -0.81,4.72 -1.35,7.04 1.62,-0.07 3.24,-0.14 4.85,-0.2 12.94,-0.49 25.66,0.51 37.7,1.51 15.36,1.28 29.63,2.56 41.89,0.74 29.82,-4.43 40.85,-19.66 44.83,-25.01l0.29 -0.39c1.4,-1.84 2.47,-2.96 3.05,-3.66 -0.6,0.49 -1.78,1.32 -3.34,2.84z"/>
  <path class="fil11" d="M209.28 109.24l-0.1 0 -0.11 0c-10.52,0 -20.84,0.82 -30.71,1.64 -15.36,1.28 -29.62,2.56 -41.88,0.74 -3.16,-0.47 -6.1,-1.06 -8.84,-1.74 0.08,0.13 0.21,0.29 0.37,0.48l0 0c0.6,0.48 1.78,1.32 3.35,2.85 4.01,3.91 12.2,16.82 42.22,20.18 15.23,1.7 34.93,-0.87 55.43,-2.3 -3.61,-6.78 -6.34,-14.01 -8.1,-21.52 -1.61,-0.07 -3.23,-0.14 -4.85,-0.2 -2.27,-0.09 -4.53,-0.13 -6.78,-0.13z"/>
  <path class="fil12" d="M131.08 114.04l0.28 0.38c4.01,5.39 15.11,20.72 45.13,25.18 16.07,2.38 35.58,-0.52 56.47,-1.82 -1.42,-2.18 -2.74,-4.41 -3.95,-6.69 -20.5,1.43 -40.2,4 -55.43,2.3 -30.02,-3.36 -38.21,-16.27 -42.22,-20.18 -1.57,-1.53 -2.75,-2.37 -3.35,-2.85 0.58,0.7 1.66,1.83 3.07,3.68z"/>
  <path class="fil13" d="M168.86 81.17l-0.22 0c-10.52,0 -20.84,0.82 -30.71,1.64 -15.36,1.28 -29.64,2.56 -41.9,0.74 -0.41,-0.06 -0.81,-0.12 -1.21,-0.19l-0.13 -0.02 -0.05 -0.01 -0.09 -0.01 -0.13 -0.02c-0.35,-0.06 -0.69,-0.12 -1.03,-0.18l-0.02 0 -0.08 -0.02 -0.05 0 -0.13 -0.03 -0.91 -0.17 -0.12 -0.02 -0.26 -0.05 -0.12 -0.02 -0.13 -0.03 -0.63 -0.12 -0.13 -0.03 -0.01 0 -0.24 -0.05 -0.12 -0.03 -0.13 -0.02 -0.62 -0.14 -0.12 -0.02 -0.37 -0.09 -0.12 -0.02 -0.12 -0.03 -0.12 -0.03 -0.24 -0.05 -0.13 -0.03 -0.12 -0.03 -0.48 -0.11c0.08,0.15 0.23,0.34 0.43,0.58l0 0c0.61,0.49 1.78,1.32 3.34,2.84 3.98,3.89 12.12,16.72 41.95,20.05 11.95,1.33 26.68,0.02 42.38,-1.29 13.03,-1.09 26.74,-2.18 40.09,-1.76 1.17,0.04 2.34,0.08 3.5,0.13 -0.66,-4.39 -1,-8.85 -1,-13.35 0,-1.48 0.04,-2.95 0.11,-4.41 -9.4,-1.25 -18.87,-2.12 -28.33,-2.73l-0.02 0 -1.32 -0.08 -0.01 0 -1.33 -0.08 -0.01 0 -1.33 -0.08 -0.01 0 -1.33 -0.07 -0.01 0 -1.33 -0.07 -0.01 0 -1.33 -0.07 -0.01 0 -1.33 -0.06 0 0 -1.33 -0.06 -0.01 0 -1.34 -0.06 0 0 -1.33 -0.06 0 0 -1.34 -0.05c-2.26,-0.08 -4.51,-0.12 -6.75,-0.13z"/>
  <path class="fil14" d="M9.35 25.12c-2.53,0.18 -2.93,0.13 -1.95,1.31 0.61,0.48 1.78,1.32 3.34,2.84 3.98,3.88 12.12,16.71 41.95,20.04 11.95,1.33 26.68,0.02 42.38,-1.29 13.03,-1.09 26.74,-2.18 40.09,-1.75 35.75,1.13 64.4,6.72 84.73,18.95 0.6,0.17 1.19,0.34 1.79,0.52 0.68,-2.48 1.45,-4.93 2.33,-7.32 -32.19,-26.53 -102.24,-34.94 -165.7,-34.94 -17.09,0 -33.7,0.61 -48.96,1.64z"/>
  <path class="fil15" d="M128.38 53.1l-0.22 0c-10.52,0 -20.84,0.83 -30.7,1.65 -15.36,1.27 -29.63,2.55 -41.88,0.73 -0.41,-0.06 -0.81,-0.12 -1.21,-0.19l-0.13 -0.02 -0.05 0 -0.09 -0.02 -0.13 -0.02 -1.02 -0.17 -0.03 -0.01 -0.08 -0.01 -0.05 -0.01 -0.13 -0.03 -0.9 -0.16 -0.13 -0.03 -0.26 -0.05 -0.13 -0.02 -0.12 -0.03 -0.63 -0.12 -0.13 -0.03 -0.25 -0.05 -0.12 -0.03 -0.13 -0.02 -0.12 -0.03 -0.25 -0.05 -0.12 -0.03 -0.13 -0.02 -0.12 -0.03 -0.37 -0.08 -0.12 -0.03 -0.12 -0.03 -0.12 -0.03 -0.24 -0.05 -0.13 -0.03 -0.12 -0.03 -0.48 -0.11c0.08,0.15 0.23,0.34 0.43,0.59l0 0c0.61,0.48 1.78,1.31 3.34,2.84 3.98,3.88 12.12,16.71 41.95,20.04 11.95,1.33 26.68,0.02 42.38,-1.29 13.03,-1.09 26.74,-2.18 40.09,-1.75 15.98,0.5 30.54,1.9 43.57,4.38 0.52,-4.43 1.36,-8.76 2.5,-12.97 -0.77,-0.23 -1.54,-0.45 -2.32,-0.68l-0.1 -0.02 -1.17 -0.33 -0.12 -0.04c-21.35,-5.91 -43.33,-8.98 -65.41,-10.52l-0.12 -0.01 -1.33 -0.09 -1.23 -0.08 -0.1 -0.01 -1.24 -0.07 -0.09 -0.01 -1.24 -0.08 -0.09 0 -1.25 -0.07 -0.08 -0.01 -1.33 -0.07 -1.27 -0.07 -0.06 0 -1.28 -0.07 -0.05 0 -1.29 -0.06 -0.03 0 -1.31 -0.06 -0.02 0 -1.31 -0.06 -0.02 0 -1.32 -0.06 -0.01 0 -1.33 -0.05c-2.27,-0.08 -4.53,-0.12 -6.78,-0.13z"/>
  <path class="fil16" d="M50.9 58.16l0.29 0.38c3.98,5.35 15.01,20.58 44.84,25.01 12.26,1.82 26.54,0.54 41.9,-0.74 12.04,-1 24.75,-2 37.68,-1.51 14.38,0.55 28.79,1.57 43.06,3.47 0.1,-2.04 0.27,-4.05 0.51,-6.05 -13.03,-2.48 -27.59,-3.88 -43.57,-4.38 -13.35,-0.43 -27.06,0.66 -40.09,1.75 -15.7,1.31 -30.43,2.62 -42.38,1.29 -29.83,-3.33 -37.97,-16.16 -41.95,-20.04 -1.56,-1.53 -2.73,-2.36 -3.34,-2.84 0.59,0.69 1.66,1.81 3.05,3.66z"/>
  <path class="fil17" d="M10.46 30.09l0.28 0.38c3.98,5.35 15.01,20.59 44.84,25.01 12.25,1.82 26.52,0.54 41.88,-0.73 12.04,-1.01 24.76,-2.01 37.7,-1.52 28.55,1.09 57.2,4.12 84.75,12 -20.32,-12.24 -48.99,-17.83 -84.75,-18.96 -13.35,-0.43 -27.06,0.66 -40.09,1.75 -15.7,1.31 -30.43,2.62 -42.38,1.29 -29.83,-3.33 -37.97,-16.16 -41.95,-20.04 -1.56,-1.52 -2.73,-2.36 -3.34,-2.84 0.59,0.7 1.66,1.82 3.06,3.66z"/>
  <path class="fil18" d="M91.35 86.22l0.29 0.39c3.98,5.35 15.01,20.58 44.84,25.01 12.26,1.82 26.52,0.54 41.88,-0.74 12.04,-1 24.76,-2 37.7,-1.51 1.62,0.06 3.24,0.13 4.85,0.2 -0.54,-2.32 -0.99,-4.67 -1.35,-7.04 -1.16,-0.05 -2.33,-0.09 -3.5,-0.13 -13.35,-0.42 -27.06,0.67 -40.09,1.76 -15.7,1.31 -30.43,2.62 -42.38,1.29 -29.83,-3.33 -37.97,-16.16 -41.95,-20.05 -1.56,-1.52 -2.73,-2.35 -3.34,-2.84 0.59,0.7 1.66,1.82 3.05,3.66z"/>
  <path class="fil19" d="M227.77 89.18c0,42.66 33.39,77.52 75.46,79.88l0 -39.47c-20.32,-2.27 -36.11,-19.49 -36.11,-40.41 0,-20.92 15.79,-38.15 36.11,-40.41l0 -39.47c-42.07,2.36 -75.46,37.22 -75.46,79.88zm84.56 -40.41c20.32,2.26 36.12,19.49 36.12,40.41 0,20.92 -15.8,38.14 -36.12,40.41l0 39.47c42.08,-2.36 75.46,-37.22 75.46,-79.88 0,-42.66 -33.38,-77.52 -75.46,-79.88l0 39.47z"/>
  <path class="fil20" d="M234.07 178.68l47.6 0c5.97,-5 13.4,-8.33 21.56,-9.24l0 -39.47c-31.17,1.75 -57.57,21.33 -69.16,48.71z"/>
  <path class="fil21" d="M333.9 178.68l47.59 0c-11.59,-27.38 -37.99,-46.96 -69.16,-48.71l0 39.47c8.16,0.91 15.6,4.24 21.57,9.24z"/>
 </g>
</svg>
